<svg width="90" height="32" viewBox="0 0 90 32" fill="none" xmlns="http://www.w3.org/2000/svg">
<path d="M85 0H31V32H85C87.7614 32 90 29.7614 90 27V5C90 2.23858 87.7614 0 85 0Z" fill="#0F1418"/>
<path d="M5 0.5H30.5V31.5H5C2.51472 31.5 0.5 29.4853 0.5 27V5C0.5 2.51472 2.51472 0.5 5 0.5Z" fill="white" stroke="#1C2125"/>
<path d="M85 0H5C2.23858 0 0 2.23858 0 5V27C0 29.7614 2.23858 32 5 32H85C87.7614 32 90 29.7614 90 27V5C90 2.23858 87.7614 0 85 0Z" fill="url(#paint0_linear_20_17)"/>
<path d="M10.5864 28.4294C13.1177 28.4294 15.1723 26.6058 15.1723 24.358V20.2866H10.5864C8.05514 20.2866 6.00055 22.1102 6.00055 24.358C6.00055 26.6058 8.05514 28.4294 10.5864 28.4294Z" fill="#0ACF83"/>
<path d="M6 16.2147C6 13.9674 8.05405 12.1433 10.5859 12.1433H15.1723V20.2866H10.5864C8.05512 20.2861 6 18.462 6 16.2147Z" fill="#A259FF"/>
<path d="M6 8.07141C6 5.82362 8.05459 4 10.5859 4H15.1723V12.1433H10.5864C8.05512 12.1433 6 10.3187 6 8.07141Z" fill="#F24E1E"/>
<path d="M15.1723 4H19.7582C22.2895 4 24.344 5.82362 24.344 8.07141C24.344 10.3192 22.29 12.1428 19.7582 12.1428H15.1723V4Z" fill="#FF7262"/>
<path d="M23.0004 19.0936C24.7913 17.5036 24.7913 14.9258 23.0004 13.3358C21.2095 11.7459 18.3059 11.7459 16.5151 13.3358C14.7242 14.9258 14.7242 17.5036 16.5151 19.0936C18.3059 20.6836 21.2095 20.6836 23.0004 19.0936Z" fill="#1ABCFE"/>
<path d="M43.8285 11.4233H40.1224V14.0015H43.5282V15.9204H40.1224V20H37.7567V9.49707H43.8285V11.4233ZM46.9528 11.3135C46.5622 11.3135 46.2424 11.1987 45.9933 10.9692C45.7443 10.7349 45.6198 10.4492 45.6198 10.1123C45.6198 9.76562 45.7443 9.48242 45.9933 9.2627C46.2424 9.04297 46.5622 8.93311 46.9528 8.93311C47.3483 8.93311 47.6681 9.04297 47.9123 9.2627C48.1613 9.48242 48.2858 9.76562 48.2858 10.1123C48.2858 10.4639 48.1613 10.752 47.9123 10.9766C47.6681 11.2012 47.3483 11.3135 46.9528 11.3135ZM48.0954 20H45.7809V12.5H48.0954V20ZM57.5771 19.1431C57.5771 20.5347 57.1743 21.6113 56.3687 22.373C55.563 23.1396 54.396 23.5229 52.8677 23.5229C51.8569 23.5229 51.0562 23.3789 50.4653 23.0908V21.1426C51.2368 21.5918 52.0156 21.8164 52.8018 21.8164C53.583 21.8164 54.1885 21.6089 54.6182 21.1938C55.0479 20.7837 55.2627 20.2246 55.2627 19.5166V18.9233H55.2334C54.7061 19.7632 53.9272 20.1831 52.897 20.1831C51.9399 20.1831 51.1807 19.8462 50.6191 19.1724C50.0576 18.4985 49.7769 17.5952 49.7769 16.4624C49.7769 15.1929 50.0894 14.1846 50.7144 13.4375C51.3394 12.6904 52.1621 12.3169 53.1826 12.3169C54.0957 12.3169 54.7793 12.6685 55.2334 13.3716H55.2627V12.5H57.5771V19.1431ZM55.292 16.3965V15.8032C55.292 15.3296 55.1504 14.9268 54.8672 14.5947C54.5889 14.2578 54.2251 14.0894 53.7759 14.0894C53.2632 14.0894 52.8604 14.2896 52.5674 14.6899C52.2744 15.0903 52.1279 15.6543 52.1279 16.3818C52.1279 17.0068 52.2671 17.5024 52.5454 17.8687C52.8237 18.23 53.2046 18.4106 53.688 18.4106C54.1665 18.4106 54.5522 18.2275 54.8452 17.8613C55.1431 17.4902 55.292 17.002 55.292 16.3965ZM71.5999 20H69.2928V15.7227C69.2928 14.6338 68.8924 14.0894 68.0916 14.0894C67.7108 14.0894 67.4007 14.2529 67.1614 14.5801C66.9222 14.9072 66.8026 15.3149 66.8026 15.8032V20H64.4881V15.6787C64.4881 14.6191 64.095 14.0894 63.3089 14.0894C62.9134 14.0894 62.596 14.2456 62.3568 14.5581C62.1224 14.8706 62.0052 15.2954 62.0052 15.8325V20H59.6907V12.5H62.0052V13.6719H62.0345C62.2738 13.2715 62.6082 12.9468 63.0379 12.6978C63.4725 12.4438 63.9461 12.3169 64.4588 12.3169C65.5184 12.3169 66.2435 12.7832 66.6341 13.7158C67.2054 12.7832 68.0452 12.3169 69.1536 12.3169C70.7845 12.3169 71.5999 13.3228 71.5999 15.3345V20ZM79.8512 20H77.6613V18.9233H77.632C77.129 19.7632 76.3844 20.1831 75.3981 20.1831C74.6705 20.1831 74.0968 19.978 73.6769 19.5679C73.2619 19.1528 73.0543 18.6011 73.0543 17.9126C73.0543 16.4575 73.9162 15.6177 75.6398 15.3931L77.6759 15.1221C77.6759 14.3018 77.2316 13.8916 76.3429 13.8916C75.4494 13.8916 74.5997 14.1577 73.7941 14.6899V12.9468C74.1163 12.7808 74.5558 12.6343 75.1124 12.5073C75.674 12.3804 76.1842 12.3169 76.6432 12.3169C78.7819 12.3169 79.8512 13.3838 79.8512 15.5176V20ZM77.6759 16.9531V16.4478L76.3136 16.6235C75.5617 16.7212 75.1857 17.0605 75.1857 17.6416C75.1857 17.9053 75.276 18.1226 75.4567 18.2935C75.6422 18.4595 75.8913 18.5425 76.2038 18.5425C76.6383 18.5425 76.9923 18.3936 77.2658 18.0957C77.5392 17.793 77.6759 17.4121 77.6759 16.9531Z" fill="white"/>
<defs>
<linearGradient id="paint0_linear_20_17" x1="0" y1="0" x2="0" y2="32" gradientUnits="userSpaceOnUse">
<stop stop-color="#BBBBBB" stop-opacity="0.1"/>
<stop offset="1" stop-opacity="0.1"/>
</linearGradient>
</defs>
</svg>
