<svg width="102" height="32" viewBox="0 0 102 32" fill="none" xmlns="http://www.w3.org/2000/svg">
<path d="M97 0H31V32H97C99.7614 32 102 29.7614 102 27V5C102 2.23858 99.7614 0 97 0Z" fill="#0F1418"/>
<path d="M31 0H5C2.23858 0 0 2.23858 0 5V27C0 29.7614 2.23858 32 5 32H31V0Z" fill="#0095D5"/>
<path d="M97 0H5C2.23858 0 0 2.23858 0 5V27C0 29.7614 2.23858 32 5 32H97C99.7614 32 102 29.7614 102 27V5C102 2.23858 99.7614 0 97 0Z" fill="url(#paint0_linear_23_8)"/>
<path d="M7.00659 24.3704L7.15144 24.1665L14.0214 11.1305L14.0346 10.9922L11.0032 5.29927C10.7467 4.81927 10.0366 4.94443 9.95128 5.47693L7.00659 24.3704Z" fill="#FFC24A"/>
<path d="M16.2428 15.2981L18.4975 12.9905L16.2428 8.68452C16.0258 8.27671 15.4277 8.27671 15.2172 8.68452L14.0144 10.9856V11.183L16.2428 15.2981Z" fill="#F4BD62"/>
<path d="M7.00659 24.3703L7.07222 24.3047L7.30894 24.2058L16.1046 15.4495L16.21 15.1472L14.021 10.9659L7.00659 24.3703Z" fill="#F6820C"/>
<path d="M16.5255 28.7879L24.4802 24.3507L22.2058 10.3547C22.1336 9.91412 21.5946 9.7435 21.2857 10.059L7.00659 24.3704L14.9214 28.7879C15.4146 29.0705 16.0258 29.0705 16.5255 28.7879Z" fill="#FDE068"/>
<path d="M24.414 24.3113L22.1594 10.4269C22.0872 9.99284 21.64 9.81565 21.3311 10.1246L7.09186 24.3441L14.9148 28.7156C15.408 28.9917 16.0126 28.9917 16.5123 28.7156L24.414 24.3113Z" fill="#FCCA3F"/>
<path d="M16.5255 28.6566C16.0258 28.9327 15.4145 28.9327 14.9148 28.6566L7.06563 24.3047L7 24.3704L14.9148 28.7879C15.4145 29.064 16.0258 29.064 16.5255 28.7879L24.4802 24.3507L24.4605 24.2325L16.5255 28.6566Z" fill="#EEAB37"/>
<path d="M44.6171 13.4233H40.911V16.0015H44.3168V17.9204H40.911V22H38.5453V11.4971H44.6171V13.4233ZM47.4777 13.3135C47.0871 13.3135 46.7673 13.1987 46.5183 12.9692C46.2692 12.7349 46.1447 12.4492 46.1447 12.1123C46.1447 11.7656 46.2692 11.4824 46.5183 11.2627C46.7673 11.043 47.0871 10.9331 47.4777 10.9331C47.8732 10.9331 48.1931 11.043 48.4372 11.2627C48.6862 11.4824 48.8107 11.7656 48.8107 12.1123C48.8107 12.4639 48.6862 12.752 48.4372 12.9766C48.1931 13.2012 47.8732 13.3135 47.4777 13.3135ZM48.6203 22H46.3059V14.5H48.6203V22ZM55.6411 16.5874C55.3628 16.436 55.0381 16.3604 54.667 16.3604C54.1641 16.3604 53.771 16.5459 53.4878 16.917C53.2046 17.2832 53.063 17.7837 53.063 18.4185V22H50.7486V14.5H53.063V15.8916H53.0923C53.4585 14.876 54.1177 14.3682 55.0698 14.3682C55.314 14.3682 55.5044 14.3975 55.6411 14.4561V16.5874ZM63.5848 18.9092H58.6922C58.7704 19.998 59.4564 20.5425 60.7503 20.5425C61.5755 20.5425 62.3006 20.3472 62.9256 19.9565V21.6265C62.2323 21.9976 61.3314 22.1831 60.223 22.1831C59.0121 22.1831 58.0721 21.8486 57.4032 21.1797C56.7342 20.5059 56.3997 19.5684 56.3997 18.3672C56.3997 17.1221 56.7611 16.1357 57.4837 15.4082C58.2064 14.6807 59.0951 14.3169 60.1497 14.3169C61.2435 14.3169 62.0882 14.6416 62.6839 15.291C63.2845 15.9404 63.5848 16.8218 63.5848 17.9351V18.9092ZM61.4388 17.4883C61.4388 16.4141 61.0042 15.877 60.1351 15.877C59.764 15.877 59.4417 16.0308 59.1683 16.3384C58.8997 16.646 58.7362 17.0293 58.6776 17.4883H61.4388ZM67.4855 21.1284H67.4562V22H65.1418V10.8965H67.4562V15.6279H67.4855C68.0568 14.7539 68.8698 14.3169 69.9245 14.3169C70.8913 14.3169 71.6359 14.6489 72.1584 15.313C72.6808 15.9771 72.9421 16.8853 72.9421 18.0376C72.9421 19.2876 72.6369 20.291 72.0265 21.0479C71.4162 21.8047 70.6007 22.1831 69.5802 22.1831C68.6574 22.1831 67.9591 21.8315 67.4855 21.1284ZM67.4196 17.9644V18.7334C67.4196 19.2168 67.5588 19.6172 67.8371 19.9346C68.1154 20.252 68.4718 20.4106 68.9064 20.4106C69.4338 20.4106 69.8415 20.208 70.1296 19.8027C70.4225 19.3926 70.569 18.814 70.569 18.0669C70.569 17.4468 70.4347 16.9634 70.1662 16.6167C69.9025 16.2651 69.5241 16.0894 69.0309 16.0894C68.5671 16.0894 68.1813 16.2627 67.8737 16.6094C67.571 16.9561 67.4196 17.4077 67.4196 17.9644ZM80.7173 22H78.5273V20.9233H78.498C77.9951 21.7632 77.2505 22.1831 76.2641 22.1831C75.5366 22.1831 74.9629 21.978 74.543 21.5679C74.1279 21.1528 73.9204 20.6011 73.9204 19.9126C73.9204 18.4575 74.7822 17.6177 76.5058 17.3931L78.542 17.1221C78.542 16.3018 78.0976 15.8916 77.209 15.8916C76.3154 15.8916 75.4658 16.1577 74.6601 16.6899V14.9468C74.9824 14.7808 75.4219 14.6343 75.9785 14.5073C76.54 14.3804 77.0503 14.3169 77.5093 14.3169C79.6479 14.3169 80.7173 15.3838 80.7173 17.5176V22ZM78.542 18.9531V18.4478L77.1797 18.6235C76.4277 18.7212 76.0517 19.0605 76.0517 19.6416C76.0517 19.9053 76.1421 20.1226 76.3227 20.2935C76.5083 20.4595 76.7573 20.5425 77.0698 20.5425C77.5044 20.5425 77.8584 20.3936 78.1318 20.0957C78.4053 19.793 78.542 19.4121 78.542 18.9531ZM82.2376 21.8022V19.9272C82.6185 20.1567 82.9969 20.3276 83.3729 20.4399C83.7537 20.5522 84.1126 20.6084 84.4495 20.6084C84.8597 20.6084 85.1819 20.5522 85.4163 20.4399C85.6556 20.3276 85.7752 20.1567 85.7752 19.9272C85.7752 19.7808 85.7215 19.6587 85.6141 19.561C85.5066 19.4634 85.3675 19.3779 85.1966 19.3047C85.0306 19.2314 84.8475 19.1655 84.6473 19.1069C84.4471 19.0483 84.2542 18.9824 84.0687 18.9092C83.7708 18.7969 83.5071 18.6772 83.2776 18.5503C83.053 18.4185 82.8626 18.2671 82.7064 18.0962C82.555 17.9253 82.4378 17.7275 82.3548 17.5029C82.2767 17.2783 82.2376 17.0122 82.2376 16.7046C82.2376 16.2847 82.3279 15.9233 82.5086 15.6206C82.6941 15.3179 82.9383 15.0713 83.241 14.8809C83.5486 14.6855 83.8978 14.5439 84.2884 14.4561C84.6839 14.3633 85.094 14.3169 85.5189 14.3169C85.8509 14.3169 86.1878 14.3438 86.5296 14.3975C86.8714 14.4463 87.2083 14.5195 87.5403 14.6172V16.4043C87.2474 16.2334 86.9324 16.1064 86.5955 16.0234C86.2635 15.9355 85.9363 15.8916 85.6141 15.8916C85.4627 15.8916 85.3187 15.9062 85.1819 15.9355C85.0501 15.96 84.9329 15.999 84.8304 16.0527C84.7278 16.1016 84.6473 16.1675 84.5887 16.2505C84.5301 16.3286 84.5008 16.4189 84.5008 16.5215C84.5008 16.6582 84.5447 16.7754 84.6326 16.873C84.7205 16.9707 84.8353 17.0562 84.9769 17.1294C85.1185 17.1978 85.2747 17.2612 85.4456 17.3198C85.6214 17.3735 85.7947 17.4297 85.9656 17.4883C86.2732 17.5957 86.5516 17.7129 86.8006 17.8398C87.0496 17.9668 87.262 18.1157 87.4378 18.2866C87.6185 18.4575 87.7552 18.6577 87.848 18.8872C87.9456 19.1167 87.9944 19.3901 87.9944 19.7075C87.9944 20.1519 87.8968 20.5327 87.7015 20.8501C87.511 21.1626 87.2547 21.4189 86.9324 21.6191C86.615 21.8145 86.2464 21.9561 85.8265 22.0439C85.4114 22.1367 84.9793 22.1831 84.5301 22.1831C83.7049 22.1831 82.9407 22.0562 82.2376 21.8022ZM96.253 18.9092H91.3605C91.4386 19.998 92.1246 20.5425 93.4186 20.5425C94.2438 20.5425 94.9689 20.3472 95.5939 19.9565V21.6265C94.9005 21.9976 93.9996 22.1831 92.8912 22.1831C91.6803 22.1831 90.7403 21.8486 90.0714 21.1797C89.4025 20.5059 89.068 19.5684 89.068 18.3672C89.068 17.1221 89.4293 16.1357 90.152 15.4082C90.8746 14.6807 91.7633 14.3169 92.818 14.3169C93.9117 14.3169 94.7565 14.6416 95.3522 15.291C95.9528 15.9404 96.253 16.8218 96.253 17.9351V18.9092ZM94.107 17.4883C94.107 16.4141 93.6725 15.877 92.8033 15.877C92.4322 15.877 92.11 16.0308 91.8365 16.3384C91.568 16.646 91.4044 17.0293 91.3458 17.4883H94.107Z" fill="white"/>
<defs>
<linearGradient id="paint0_linear_23_8" x1="0" y1="0" x2="0" y2="32" gradientUnits="userSpaceOnUse">
<stop stop-color="#BBBBBB" stop-opacity="0.1"/>
<stop offset="1" stop-opacity="0.1"/>
</linearGradient>
</defs>
</svg>
