<?xml version="1.0" encoding="utf-8"?>
<!-- Generator: Adobe Illustrator 26.5.0, SVG Export Plug-In . SVG Version: 6.00 Build 0)  -->
<svg version="1.1" id="Layer_1" xmlns="http://www.w3.org/2000/svg" xmlns:xlink="http://www.w3.org/1999/xlink" x="0px" y="0px"
	 viewBox="0 0 512 512" style="enable-background:new 0 0 512 512;" xml:space="preserve">
<style type="text/css">
	.st0{fill:#FFC24A;}
	.st1{fill:#F4BD62;}
	.st2{fill:#F6820C;}
	.st3{fill:#FDE068;}
	.st4{fill:#FCCA3F;}
	.st5{fill:#EEAB37;}
</style>
<g id="XMLID_1_">
	<path id="XMLID_2_" class="st0" d="M69.64,413.22l3.09-4.35l146.56-278.1l0.28-2.95L154.9,6.37c-5.47-10.24-20.62-7.57-22.44,3.79
		L69.64,413.22z"/>
	<path id="XMLID_3_" class="st1" d="M266.68,219.68l48.1-49.23l-48.1-91.86c-4.63-8.7-17.39-8.7-21.88,0l-25.66,49.09v4.21
		L266.68,219.68z"/>
	<polygon id="XMLID_4_" class="st2" points="69.64,413.22 71.04,411.82 76.09,409.71 263.73,222.91 265.98,216.46 219.28,127.26 	
		"/>
	<path id="XMLID_5_" class="st3" d="M272.71,507.46l169.7-94.66l-48.52-298.58c-1.54-9.4-13.04-13.04-19.63-6.31L69.64,413.22
		l168.85,94.24C249.01,513.49,262.05,513.49,272.71,507.46"/>
	<path id="XMLID_6_" class="st4" d="M441,411.96l-48.1-296.2c-1.54-9.26-11.08-13.04-17.67-6.45L71.46,412.66l166.89,93.26
		c10.52,5.89,23.42,5.89,34.08,0L441,411.96z"/>
	<path id="XMLID_7_" class="st5" d="M272.71,504.66c-10.66,5.89-23.7,5.89-34.36,0L70.9,411.82l-1.4,1.4l168.85,94.24
		c10.66,5.89,23.7,5.89,34.36,0l169.7-94.66l-0.42-2.52L272.71,504.66z"/>
</g>
</svg>
