<svg width="76" height="34" viewBox="0 0 76 34" fill="none" xmlns="http://www.w3.org/2000/svg">
<path d="M70 1H32V33H70C72.7614 33 75 30.7614 75 28V6C75 3.23858 72.7614 1 70 1Z" fill="#0F1418"/>
<path d="M32 1H6C3.23858 1 1 3.23858 1 6V28C1 30.7614 3.23858 33 6 33H32V1Z" fill="white"/>
<path d="M70 1H6C3.23858 1 1 3.23858 1 6V28C1 30.7614 3.23858 33 6 33H70C72.7614 33 75 30.7614 75 28V6C75 3.23858 72.7614 1 70 1Z" fill="url(#paint0_linear_20_2)"/>
<g clip-path="url(#clip0_20_2)">
<path d="M28.5452 16.9314L18.0687 6.45486C17.464 5.85017 16.489 5.85017 15.8843 6.45486L13.7093 8.62986L16.4702 11.3908C17.1124 11.1752 17.8484 11.3205 18.3593 11.8314C18.8749 12.347 19.0156 13.0877 18.7952 13.7299L21.4577 16.3924C22.0999 16.172 22.8452 16.3127 23.3562 16.8283C24.0734 17.5455 24.0734 18.7127 23.3562 19.4299C22.639 20.147 21.4718 20.147 20.7546 19.4299C20.2156 18.8908 20.0796 18.0939 20.3562 17.4283L17.8765 14.9486V21.4783C18.0499 21.5674 18.2187 21.6799 18.364 21.8252C19.0812 22.5424 19.0812 23.7049 18.364 24.4267C17.6468 25.1439 16.4796 25.1439 15.7624 24.4267C15.0452 23.7095 15.0452 22.5424 15.7624 21.8252C15.9406 21.647 16.1468 21.5158 16.3624 21.422V14.8314C16.1421 14.7424 15.9406 14.6064 15.7624 14.4283C15.2187 13.8845 15.0874 13.0877 15.364 12.4174L12.6452 9.69392L5.45461 16.8845C4.84993 17.4892 4.84993 18.4689 5.45461 19.0689L15.9312 29.5455C16.5359 30.1502 17.5109 30.1502 18.1156 29.5455L28.5452 19.1158C29.1499 18.5158 29.1499 17.5361 28.5452 16.9314Z" fill="#DE4C36"/>
</g>
<path d="M51.256 22.2969C50.2306 22.8877 48.9562 23.1831 47.4328 23.1831C45.7433 23.1831 44.4103 22.7168 43.4338 21.7842C42.4621 20.8467 41.9762 19.5576 41.9762 17.917C41.9762 16.2666 42.5085 14.9214 43.5729 13.8813C44.6374 12.8413 46.0534 12.3213 47.821 12.3213C48.9343 12.3213 49.9157 12.4751 50.7653 12.7827V15.002C49.9548 14.5332 48.9636 14.2988 47.7917 14.2988C46.8102 14.2988 46.0095 14.6187 45.3893 15.2583C44.7741 15.8931 44.4665 16.7427 44.4665 17.8071C44.4665 18.8862 44.7424 19.7212 45.2941 20.312C45.8508 20.9028 46.6003 21.1982 47.5427 21.1982C48.1091 21.1982 48.5583 21.1177 48.8903 20.9565V18.9058H46.7883V17.0161H51.256V22.2969ZM54.4243 14.3135C54.0337 14.3135 53.7139 14.1987 53.4648 13.9692C53.2158 13.7349 53.0913 13.4492 53.0913 13.1123C53.0913 12.7656 53.2158 12.4824 53.4648 12.2627C53.7139 12.043 54.0337 11.9331 54.4243 11.9331C54.8198 11.9331 55.1396 12.043 55.3838 12.2627C55.6328 12.4824 55.7573 12.7656 55.7573 13.1123C55.7573 13.4639 55.6328 13.752 55.3838 13.9766C55.1396 14.2012 54.8198 14.3135 54.4243 14.3135ZM55.5669 23H53.2524V15.5H55.5669V23ZM62.2288 22.9121C61.887 23.0928 61.3719 23.1831 60.6834 23.1831C59.0526 23.1831 58.2371 22.3359 58.2371 20.6416V17.2065H57.0213V15.5H58.2371V13.8813L60.5443 13.2222V15.5H62.2288V17.2065H60.5443V20.2388C60.5443 21.02 60.8543 21.4106 61.4744 21.4106C61.7186 21.4106 61.97 21.3398 62.2288 21.1982V22.9121Z" fill="white"/>
<rect x="0.5" y="0.5" width="75" height="33" rx="5.5" stroke="black" stroke-miterlimit="5.75877" stroke-linejoin="round"/>
<defs>
<linearGradient id="paint0_linear_20_2" x1="1" y1="1" x2="1" y2="33" gradientUnits="userSpaceOnUse">
<stop stop-color="#BBBBBB" stop-opacity="0.1"/>
<stop offset="1" stop-opacity="0.1"/>
</linearGradient>
<clipPath id="clip0_20_2">
<rect width="24" height="24" fill="white" transform="translate(5 6)"/>
</clipPath>
</defs>
</svg>
